<svg xmlns="http://www.w3.org/2000/svg" width="64" height="64" viewBox="0 0 64 64" fill="none">
<defs>
  <linearGradient id="g" x1="8" y1="8" x2="56" y2="56" gradientUnits="userSpaceOnUse">
    <stop stop-color="#24C8D8"/>
    <stop offset="1" stop-color="#0E7490"/>
  </linearGradient>
  <filter id="s" x="-20%" y="-20%" width="140%" height="140%">
    <feDropShadow dx="0" dy="1.5" stdDeviation="1.2" flood-color="#0f172a" flood-opacity="0.12"/>
  </filter>
</defs>
<g stroke="url(#g)" stroke-width="2.6" stroke-linecap="round" stroke-linejoin="round" filter="url(#s)">
<rect x="12" y="12" width="40" height="40" rx="4"/>
<path d="M20 42c0-6 4-10 8-14 4 4 8 8 8 14 0 4-3 8-8 8s-8-4-8-8Z" fill="url(#g)" stroke="none"/>
<path d="M38 38c0-5 3-8 6-11 3 3 6 6 6 11 0 3-3 6-6 6s-6-3-6-6Z" fill="url(#g)" stroke="none" opacity="0.55"/>
</g></svg>
